<?xml version="1.0" encoding="UTF-8" standalone="no"?>
<!-- Uploaded to: SVG Repo, www.svgrepo.com, Generator: SVG Repo Mixer Tools -->

<svg
   fill="#000000"
   version="1.1"
   id="Capa_1"
   width="800px"
   height="800px"
   viewBox="0 0 557.956 557.956"
   xml:space="preserve"
   sodipodi:docname="cogwheel-svgrepo-com (1).svg"
   inkscape:version="1.4.3 (0d15f75, 2025-12-25)"
   xmlns:inkscape="http://www.inkscape.org/namespaces/inkscape"
   xmlns:sodipodi="http://sodipodi.sourceforge.net/DTD/sodipodi-0.dtd"
   xmlns="http://www.w3.org/2000/svg"
   xmlns:svg="http://www.w3.org/2000/svg"><defs
   id="defs1"><rect
     x="246.78663"
     y="295.45844"
     width="346.1868"
     height="185.08997"
     id="rect1" /></defs><sodipodi:namedview
   id="namedview1"
   pagecolor="#ffffff"
   bordercolor="#000000"
   borderopacity="0.25"
   inkscape:showpageshadow="2"
   inkscape:pageopacity="0.0"
   inkscape:pagecheckerboard="0"
   inkscape:deskcolor="#d1d1d1"
   showgrid="false"
   inkscape:zoom="1.45875"
   inkscape:cx="400"
   inkscape:cy="345.15853"
   inkscape:window-width="2560"
   inkscape:window-height="1369"
   inkscape:window-x="-8"
   inkscape:window-y="-8"
   inkscape:window-maximized="1"
   inkscape:current-layer="Capa_1" />
<g
   id="g1"
   transform="translate(0.47811136,-7.1716706)">
	<path
   d="m 537.796,145.504 -31.212,-12.852 c -4.896,-1.836 -12.547,-2.142 -17.442,0 l -23.868,9.792 c -4.896,1.836 -11.016,0.306 -14.382,-3.672 -9.18,-11.322 -19.584,-21.726 -30.6,-30.6 -3.979,-3.366 -5.814,-9.792 -3.673,-14.382 l 9.792,-23.562 c 1.837,-4.896 2.143,-12.546 0,-17.136 L 413.865,21.268 C 412.029,16.372 406.521,10.864 401.626,9.028 L 384.796,1.99 c -4.896,-1.836 -12.546,-2.142 -17.137,0 l -31.212,12.852 c -4.896,1.836 -10.403,7.344 -12.239,12.24 l -9.792,23.562 c -1.837,4.896 -7.65,7.956 -12.853,7.65 -14.382,-1.53 -28.764,-1.53 -43.452,0 -5.202,0.612 -11.016,-2.754 -12.852,-7.65 l -9.792,-23.868 c -1.836,-4.896 -7.344,-10.404 -12.24,-12.24 L 191.709,1.684 c -4.896,-1.836 -12.546,-1.836 -17.442,0 l -17.136,7.038 c -4.896,1.836 -10.404,7.344 -12.24,12.24 l -12.546,31.212 c -1.836,4.896 -2.142,12.546 0,17.136 l 9.792,23.868 c 1.836,4.896 0.306,11.016 -3.672,14.382 -11.322,9.18 -21.726,19.584 -30.6,30.6 -3.366,3.978 -9.792,5.814 -14.382,3.672 L 69.615,132.04 c -4.896,-1.836 -12.546,-2.142 -17.442,0 l -31.212,12.852 c -4.896,1.836 -10.404,7.344 -12.24,12.24 l -7.038,16.83 c -1.836,4.896 -2.142,12.546 0,17.136 l 12.852,31.212 c 1.836,4.896 7.344,10.404 12.24,12.24 l 23.562,9.792 c 4.896,1.836 7.956,7.65 7.65,12.852 -1.53,14.382 -1.53,28.764 0,43.453 0.612,5.202 -2.754,11.016 -7.65,12.852 l -23.868,9.792 c -4.896,1.836 -10.404,7.344 -12.24,12.24 L 1.377,366.742 c -1.836,4.896 -1.836,12.546 0,17.136 l 7.038,17.137 c 1.836,4.896 7.344,10.403 12.24,12.239 l 31.212,12.853 c 4.896,1.836 12.546,2.142 17.136,0 l 23.868,-9.792 c 4.896,-1.836 11.016,-0.307 14.382,3.672 9.18,11.322 19.584,21.726 30.6,30.6 3.978,3.366 5.814,9.792 3.672,14.382 l -9.792,23.562 c -1.836,4.896 -2.142,12.546 0,17.136 l 12.852,31.212 c 1.836,4.896 7.344,10.404 12.24,12.24 l 16.83,7.038 c 4.896,1.836 12.546,2.142 17.442,0 l 31.212,-12.853 c 4.896,-1.836 10.404,-7.344 12.24,-12.239 l 9.792,-23.868 c 1.836,-4.896 7.65,-7.956 12.852,-7.65 14.382,1.53 28.765,1.53 43.453,0 5.202,-0.611 11.016,2.754 12.852,7.65 l 9.792,23.868 c 1.837,4.896 7.345,10.403 12.24,12.239 l 31.212,12.853 c 4.896,1.836 12.546,2.142 17.137,0 l 17.136,-7.038 c 4.896,-1.836 10.404,-7.344 12.24,-12.24 l 12.852,-31.212 c 1.836,-4.896 2.142,-12.546 0,-17.136 l -9.792,-23.868 c -1.836,-4.896 -0.306,-11.016 3.672,-14.382 11.322,-9.18 21.727,-19.584 30.601,-30.6 3.365,-3.979 9.792,-5.814 14.382,-3.673 l 23.562,9.792 c 4.896,1.836 12.546,2.143 17.136,0 l 31.213,-12.852 c 4.896,-1.836 10.403,-7.344 12.239,-12.24 l 7.038,-16.83 c 1.836,-4.896 2.143,-12.546 0,-17.136 L 543.306,335.53 c -1.836,-4.896 -7.344,-10.404 -12.24,-12.24 l -23.562,-9.792 c -4.896,-1.836 -7.956,-7.649 -7.65,-12.852 1.53,-14.382 1.53,-28.765 0,-43.453 -0.612,-5.202 2.754,-11.016 7.65,-12.852 l 23.867,-9.792 c 4.896,-1.836 10.404,-7.344 12.24,-12.24 l 12.853,-31.212 c 1.836,-4.896 2.142,-12.546 0,-17.442 l -7.038,-17.136 c -1.227,-3.365 -6.735,-8.873 -11.63,-11.015 z M 349.3,449.362 c -93.637,38.556 -201.042,-5.814 -239.599,-99.756 -38.556,-93.943 5.814,-201.042 99.756,-239.599 93.942,-38.556 201.043,5.814 239.599,99.756 38.555,93.331 -6.12,200.737 -99.756,239.599 z"
   id="path1" />
</g>
<text
   xml:space="preserve"
   transform="matrix(1.3770545,0,0,2.5477474,-233.37596,-617.07214)"
   id="text1"
   style="font-style:normal;font-variant:normal;font-weight:normal;font-stretch:normal;font-size:96px;font-family:sans-serif;-inkscape-font-specification:'sans-serif, Normal';font-variant-ligatures:normal;font-variant-caps:normal;font-variant-numeric:normal;font-variant-east-asian:normal;writing-mode:lr-tb;direction:ltr;white-space:pre;shape-inside:url(#rect1);display:inline;fill:#000000"><tspan
     x="246.78711"
     y="383.04269"
     id="tspan2">BNG2</tspan></text></svg>
