<?xml version="1.0" encoding="UTF-8" standalone="no"?>
<!-- Uploaded to: SVG Repo, www.svgrepo.com, Generator: SVG Repo Mixer Tools -->

<svg
   fill="#000000"
   height="800px"
   width="800px"
   version="1.1"
   id="Layer_1"
   viewBox="0 0 512.001 512.001"
   xml:space="preserve"
   sodipodi:docname="playground.svg"
   inkscape:version="1.4.3 (0d15f75, 2025-12-25)"
   xmlns:inkscape="http://www.inkscape.org/namespaces/inkscape"
   xmlns:sodipodi="http://sodipodi.sourceforge.net/DTD/sodipodi-0.dtd"
   xmlns="http://www.w3.org/2000/svg"
   xmlns:svg="http://www.w3.org/2000/svg"><defs
   id="defs2"><rect
     x="65.809769"
     y="165.20994"
     width="745.84404"
     height="469.58012"
     id="rect3" /><rect
     x="71.293916"
     y="193.3162"
     width="695.11568"
     height="490.14567"
     id="rect2" /></defs><sodipodi:namedview
   id="namedview2"
   pagecolor="#ffffff"
   bordercolor="#000000"
   borderopacity="0.25"
   inkscape:showpageshadow="2"
   inkscape:pageopacity="0.0"
   inkscape:pagecheckerboard="0"
   inkscape:deskcolor="#d1d1d1"
   showgrid="false"
   inkscape:zoom="1.45875"
   inkscape:cx="399.65724"
   inkscape:cy="400"
   inkscape:window-width="2560"
   inkscape:window-height="1369"
   inkscape:window-x="-8"
   inkscape:window-y="-8"
   inkscape:window-maximized="1"
   inkscape:current-layer="Layer_1" />
<g
   id="g2"
   style="fill:#cccccc"
   transform="translate(-1.3161979,1.3161979)">
	<g
   id="g1"
   style="fill:#cccccc">
		<path
   d="M 484.473,404.646 V 123.872 c 0,-27.321 -22.227,-49.548 -49.548,-49.548 H 368.86 c -27.321,0 -49.548,22.227 -49.548,49.548 v 39.174 c -32.308,2.442 -61.041,12.186 -87.398,29.635 -26.676,17.66 -47.673,40.831 -67.982,63.239 -36.083,39.816 -70.165,77.422 -133.45,82.151 C 13.39,339.349 0,353.813 0,371 v 66.678 h 16.516 c 52.539,0 98.458,-13.494 140.384,-41.252 33.585,-22.235 58.486,-49.71 80.463,-73.96 34.792,-38.39 52.921,-55.556 81.95,-59.841 v 142.021 h -27.527 v 33.032 H 512.001 V 404.646 H 484.473 Z M 319.312,229.34 c -19.082,2.105 -35.365,8.119 -51.289,18.747 -18.359,12.253 -35.125,30.117 -55.144,52.205 -20.665,22.801 -44.086,48.646 -74.215,68.593 -31.92,21.133 -66.627,32.729 -105.661,35.24 l -0.057,-33.113 c 76.441,-5.711 116.614,-50.039 155.464,-92.91 35.484,-39.154 69.15,-76.308 130.902,-81.928 z m 132.129,175.306 h -99.097 v -33.032 h 99.097 z m 0,-66.065 h -99.097 v -33.032 h 99.097 z m 0,-66.064 h -99.097 v -11.011 -22.021 h 99.097 z m 0,-66.065 H 352.344 V 173.42 h 99.097 z m 0,-66.064 h -99.097 v -16.516 c 0,-9.107 7.409,-16.516 16.516,-16.516 h 66.065 c 9.107,0 16.516,7.409 16.516,16.516 v 16.516 z"
   id="path1"
   style="fill:#cccccc" />
	</g>
</g>
<text
   xml:space="preserve"
   transform="scale(0.64000125)"
   id="text2"
   style="font-size:9.33333px;font-family:Sans;-inkscape-font-specification:'Sans, Normal';writing-mode:lr-tb;direction:ltr;white-space:pre;shape-inside:url(#rect2);display:inline;fill:#cccccc" /><text
   xml:space="preserve"
   transform="scale(0.64000125)"
   id="text3"
   style="font-style:normal;font-variant:normal;font-weight:normal;font-stretch:normal;font-size:192px;font-family:Sans;-inkscape-font-specification:'Sans, Normal';font-variant-ligatures:normal;font-variant-caps:normal;font-variant-numeric:normal;font-variant-east-asian:normal;writing-mode:lr-tb;direction:ltr;white-space:pre;shape-inside:url(#rect3);display:inline;fill:#cccccc" /><text
   xml:space="preserve"
   style="font-style:normal;font-variant:normal;font-weight:normal;font-stretch:normal;font-size:122.88px;font-family:Sans;-inkscape-font-specification:'Sans, Normal';font-variant-ligatures:normal;font-variant-caps:normal;font-variant-numeric:normal;font-variant-east-asian:normal;writing-mode:lr-tb;direction:ltr;fill:#cccccc;stroke-width:0.640001"
   x="146.5367"
   y="197.86844"
   id="text4"><tspan
     sodipodi:role="line"
     id="tspan4"
     style="stroke-width:0.640001"
     x="146.5367"
     y="197.86844" /></text><text
   xml:space="preserve"
   style="font-style:normal;font-variant:normal;font-weight:normal;font-stretch:normal;font-size:227.94px;font-family:Sans;-inkscape-font-specification:'Sans, Normal';font-variant-ligatures:normal;font-variant-caps:normal;font-variant-numeric:normal;font-variant-east-asian:normal;writing-mode:lr-tb;direction:ltr;fill:#000000;stroke-width:1.18718"
   x="-26.398512"
   y="502.67041"
   id="text5"
   transform="scale(1.1288009,0.88589584)"><tspan
     sodipodi:role="line"
     id="tspan5"
     style="stroke-width:1.18718"
     x="-26.398512"
     y="502.67041">B</tspan></text><text
   xml:space="preserve"
   style="font-style:normal;font-variant:normal;font-weight:normal;font-stretch:normal;font-size:255.579px;font-family:Sans;-inkscape-font-specification:'Sans, Normal';font-variant-ligatures:normal;font-variant-caps:normal;font-variant-numeric:normal;font-variant-east-asian:normal;writing-mode:lr-tb;direction:ltr;fill:#000000;stroke-width:1.33114"
   x="90.225914"
   y="408.18652"
   id="text6"
   transform="scale(1.006901,0.99314633)"><tspan
     sodipodi:role="line"
     id="tspan6"
     style="stroke-width:1.33114"
     x="90.225914"
     y="408.18652">N</tspan></text><text
   xml:space="preserve"
   style="font-style:normal;font-variant:normal;font-weight:normal;font-stretch:normal;font-size:234.965px;font-family:Sans;-inkscape-font-specification:'Sans, Normal';font-variant-ligatures:normal;font-variant-caps:normal;font-variant-numeric:normal;font-variant-east-asian:normal;writing-mode:lr-tb;direction:ltr;fill:#000000;stroke-width:1.22378"
   x="204.50183"
   y="312.14774"
   id="text7"
   transform="scale(1.0272779,0.97344645)"><tspan
     sodipodi:role="line"
     id="tspan7"
     style="stroke-width:1.22378"
     x="204.50183"
     y="312.14774">G</tspan></text></svg>
